<svg xmlns="http://www.w3.org/2000/svg" version="1.1" xmlns:xlink="http://www.w3.org/1999/xlink" xmlns:svgjs="http://svgjs.dev/svgjs" width="2000" height="994" viewBox="0 0 2000 994"><g transform="matrix(1,0,0,1,-1.2121212121212466,-0.16668162367739114)"><svg viewBox="0 0 396 197" data-background-color="#398378" preserveAspectRatio="xMidYMid meet" height="994" width="2000" xmlns="http://www.w3.org/2000/svg" xmlns:xlink="http://www.w3.org/1999/xlink"><g id="tight-bounds" transform="matrix(1,0,0,1,0.2400000000000091,0.03303448678515508)"><svg viewBox="0 0 395.52 196.9339310264297" height="196.9339310264297" width="395.52"><g><svg viewBox="0 0 395.52 196.9339310264297" height="196.9339310264297" width="395.52"><g><svg viewBox="0 0 675.2744586674717 336.2268751697247" height="196.9339310264297" width="395.52"><g transform="matrix(1,0,0,1,279.7544586674717,34.914298680694856)"><svg viewBox="0 0 395.52 266.39827780833497" height="266.39827780833497" width="395.52"><g id="textblocktransform"><svg viewBox="0 0 395.52 266.39827780833497" height="266.39827780833497" width="395.52" id="textblock"><g><svg viewBox="0 0 395.52 149.62596226415093" height="149.62596226415093" width="395.52"><g transform="matrix(1,0,0,1,0,0)"><svg width="395.52" viewBox="1.7 -37.5 105.99 40.1" height="149.62596226415093" data-palette-color="#ffffff"><path d="M13.15 0Q12.75 0 12.48-0.25 12.2-0.5 12.2-0.85L12.2-0.85 12.2-7.4Q12.2-8 9.65-8.5 7.1-9 5.45-9L5.45-9Q5.35-9 5.13-8.25 4.9-7.5 4.8-7.15L4.8-7.15Q4.15-4.55 3.5-1.6L3.5-1.6 3.25-0.5Q3.15-0.1 2.75-0.1L2.75-0.1Q2.35-0.1 2.02-0.35 1.7-0.6 1.7-0.95L1.7-0.95 1.75-1.05 1.75-1.1 2.3-3.6Q2.9-5.95 3.35-8.2L3.35-8.2Q3.85-10.75 4.1-11.5L4.1-11.5Q4.5-13.15 5.7-19.75L5.7-19.75 6-21.4Q7.3-29.1 7.8-31.1L7.8-31.1Q8.05-32.3 8.7-34.65L8.7-34.65Q8.95-35.65 9.4-36.65L9.4-36.65Q9.85-37.5 10.15-37.5L10.15-37.5Q10.95-37.5 11.3-37L11.3-37Q11.55-36.55 12.08-32.05 12.6-27.55 13-22.95L13-22.95 13.65-14.65Q13.65-12.5 13.95-8.15L13.95-8.15Q14.25-3.75 14.25-1.6L14.25-1.6 14.25-1.4Q14.25-0.85 14.1-0.4L14.1-0.4Q13.9 0 13.15 0L13.15 0ZM11.15-9.65Q12.15-9.65 12.15-10.15L12.15-10.15Q12.15-13.25 11.8-18.63 11.45-24 11.05-28.1L11.05-28.1Q10.95-29.85 10.65-31.95L10.65-31.95 10.45-33.9Q10.45-33.85 10.35-34.45L10.35-34.45 10.25-35.05Q9.85-33.95 9.47-32 9.1-30.05 8.7-27.4L8.7-27.4Q7.5-19.95 6.65-16.2L6.65-16.2 6.2-14.5Q5.45-12 5.45-10.7L5.45-10.7 5.45-10.4Q7.65-9.7 10.5-9.7L10.5-9.7 10.8-9.7Q10.95-9.65 11.15-9.65L11.15-9.65ZM34 0.2Q33.6 0.2 33.42-0.1 33.25-0.4 33.1-1L33.1-1Q33.05-1.4 32.9-1.7L32.9-1.7 32.95-1.85Q32.55-4.2 31.25-7.6L31.25-7.6 30.35-10.2Q30.25-10.3 29.4-12.75L29.4-12.75 29-13.95Q24.5-27.85 23.35-29L23.35-29Q22.95-27.65 22.95-25.5L22.95-25.5Q22.95-24.35 23-23.5L23-23.5 23.05-21.55 23-20.35Q22.95-19.8 22.95-19.15L22.95-19.15Q22.95-18.05 23.05-17.25L23.05-17.25Q23.15-15.65 23.15-15.65L23.15-15.65 23-15.65Q23-7.3 23.35-6.45L23.35-6.45 23.35-1.95Q23.55-1.55 23.55-0.9L23.55-0.9Q23.55-0.5 23.27-0.2 23 0.1 22.6 0.1L22.6 0.1Q21.55 0.1 21.55-2.6L21.55-2.6 21.65-4.2Q21.75-4.95 21.75-5.85L21.75-5.85Q21.75-8.25 21.6-13.05L21.6-13.05Q21.45-17.85 21.45-20.25L21.45-20.25Q21.45-21.7 21.6-24.7L21.6-24.7Q21.75-27.65 21.75-29.1L21.75-29.1 21.75-29.75Q21.75-32.2 22.65-32.95L22.65-32.95 22.8-32.8 23.3-32.9Q23.5-32.85 23.75-32.6L23.75-32.6Q23.95-32.4 23.95-32.15L23.95-32.15 24.05-31.85Q24.05-31.75 24.07-31.68 24.1-31.6 24.1-31.6L24.1-31.6Q24.9-28.05 27.7-21.65L27.7-21.65Q30.55-14.9 31.25-12.7L31.25-12.7Q31.75-10.95 32.05-9.6L32.05-9.6Q33-5.35 34.3-3.05L34.3-3.05 34.4-3.2Q35.55-14.3 35.55-30.45L35.55-30.45 35.5-31.05Q35.45-31.3 35.45-31.7L35.45-31.7Q35.45-32.75 36.15-32.75L36.15-32.75Q36.6-32.75 36.92-32.3 37.25-31.85 37.25-31.3L37.25-31.3 37.25-27.95 37-27.55Q37-22.8 36.45-11.95 35.9-1.1 35.4-0.15L35.4-0.15 34.55 0.05 34.55 0.1 34.5 0.05 34 0.2ZM46.95 0Q45.8 0 45.6-0.5L45.6-0.5Q45.35-0.5 45.2-0.45L45.2-0.45 44.8-0.45Q43.7-0.45 43.4-0.95L43.4-0.95Q43.4-1.3 43.8-1.55L43.8-1.55 44.05-1.8 45.5-1.8 45.7-2 45.8-2.45 45.85-3.05Q45.85-6.1 45.7-8.5L45.7-8.5 45.6-10.35 45.5-14Q45.5-15.95 45.65-19.85L45.65-19.85 45.75-25.65Q45.75-29.45 45.5-31.45L45.5-31.45Q45.05-31.6 44-31.6L44-31.6 43.45-31.55Q43.15-31.5 42.8-31.5L42.8-31.5Q41.85-31.5 41.85-32.35L41.85-32.35Q41.85-32.55 42.3-32.75 42.75-32.95 43.05-32.95L43.05-32.95Q44.95-32.95 46.85-32.75L46.85-32.75Q48-32.7 49.15-32.3L49.15-32.3Q50.05-32 50.05-31.45L50.05-31.45Q50.05-31.35 49.9-31.05L49.9-31.05 48.75-30.95Q48.4-31.25 47.3-31.25L47.3-31.25 47.05-31.1Q47.2-30.65 47.2-28.45L47.2-28.45Q47.2-25.15 47.15-22.5L47.15-22.5 47.05-16.55Q47.05-14.3 47.25-11.1L47.25-11.1Q47.4-7.45 47.4-5.6L47.4-5.6 47.4-4.95Q47.35-4.6 47.35-4.05L47.35-4.05Q47.35-2.9 47.5-2.65L47.5-2.65 47.45-2.55Q47.45-2.05 48.55-2.05L48.55-2.05Q49-2.05 49.3-2.1L49.3-2.1 50.05-2.1Q51.5-2.1 51.5-1.4L51.5-1.4Q51.5-0.95 51.2-0.68 50.9-0.4 50.4-0.4L50.4-0.4Q49.95-0.4 49.6-0.5L49.6-0.5Q49.2-0.55 48.75-0.55L48.75-0.55Q48.45-0.55 47.85-0.3L47.85-0.3Q47.25 0 46.95 0L46.95 0ZM75.84 2.6Q74.84 2.6 74.84-0.6L74.84-0.6 74.84-3.9Q74.84-11.1 74.54-15.15L74.54-15.15 74.39-17Q74.19-18.25 74.19-19.2L74.19-19.2Q74.19-20.9 74.29-22.3L74.29-22.3 74.39-25.4Q74.39-26.95 74.19-27.75L74.19-27.75Q73.19-27.05 68.14-6.7L68.14-6.7 68.09-5.95Q67.94-4.7 67.69-3.95L67.69-3.95Q67.54-3.4 67.27-3.1 66.99-2.8 66.64-2.8L66.64-2.8Q65.84-2.8 65.49-3.2 65.14-3.6 65.14-4.45L65.14-4.45Q65.14-5.8 63.87-11.45 62.59-17.1 61.12-22.3 59.64-27.5 59.09-28.05L59.09-28.05Q59.04-26.3 58.69-19.8L58.69-19.8Q57.99-8.3 57.99-1.7L57.99-1.7 58.04 0.3Q57.84 0.95 56.99 0.95L56.99 0.95Q56.84 0.95 56.49 0.68 56.14 0.4 56.14 0.25L56.14 0.25Q56.14-4.25 56.94-15.55L56.94-15.55Q57.69-26.05 57.69-31.3L57.69-31.3Q57.69-31.55 57.59-31.8L57.59-31.8Q57.44-32.1 57.44-32.25L57.44-32.25Q57.44-33 58.74-33L58.74-33Q59.59-33 59.74-32.25L59.74-32.25Q59.94-31.25 59.94-30.75L59.94-30.75 59.99-30.15Q60.24-28.85 61.44-26.15L61.44-26.15Q62.39-24 62.89-22.4L62.89-22.4Q63.19-21.2 63.44-20.45L63.44-20.45Q64.24-17.55 64.49-16.15L64.49-16.15 65.14-14.85Q65.29-14.1 65.74-12.4L65.74-12.4Q66.19-10.5 66.39-9.3 66.59-8.1 66.59-7L66.59-7Q67.14-7.85 69.72-17.23 72.29-26.6 72.74-29.2L72.74-29.2Q72.79-29.3 72.82-29.48 72.84-29.65 72.89-29.95L72.89-29.95Q72.99-30.6 73.34-31.9L73.34-31.9Q73.74-32.9 74.54-32.9L74.54-32.9Q74.89-32.9 75.34-32.6 75.79-32.3 75.79-32L75.79-32Q75.79-11.15 76.44-9.95L76.44-9.95 76.44-7.35Q76.39-6.2 76.39-4.7L76.39-4.7Q76.39-1.5 76.74 0.1L76.74 0.1Q76.79 0.15 76.82 0.25 76.84 0.35 76.89 0.5L76.89 0.5Q76.94 0.7 76.94 0.95L76.94 0.95Q76.94 1.5 76.62 2.05 76.29 2.6 75.84 2.6L75.84 2.6ZM74.19-27.95L74.19-28.05 74.14-28.05 74.04-28 74.19-27.95ZM94.29 0.45Q93.54 0.45 93.34 0.28 93.14 0.1 93.04-0.65L93.04-0.65Q92.59-4.3 92.49-5.2L92.49-5.2 92.24-7.2Q91.14-7.45 89.74-7.45L89.74-7.45 87.94-7.55Q86.74-7.7 86.19-7.7L86.19-7.7Q85.89-7.7 85.84-7.45L85.84-7.45Q85.84-7.3 85.79-7.3L85.79-7.3 85.69-6.3Q85.64-5.4 85.14-2.7L85.14-2.7Q84.89-1.35 84.54-0.6L84.54-0.6Q84.14 0.25 83.79 0.25L83.79 0.25Q83.49 0.25 83.14-0.03 82.79-0.3 82.79-0.6L82.79-0.6 82.84-0.75 82.89-0.9Q83.79-4.45 84.39-7.95L84.39-7.95 84.99-11.05 85.59-14.85Q85.59-14.85 86.14-18.15L86.14-18.15Q86.39-19.5 87.04-22.5L87.04-22.5Q87.74-25.9 87.89-27.15L87.89-27.15Q87.94-27.3 88.09-29L88.09-29Q88.29-30.9 88.44-31.8L88.44-31.8Q88.59-33.1 88.74-33.3L88.74-33.3 89.09-33.3Q89.24-33.25 89.44-33.25L89.44-33.25Q90.04-33.25 90.34-33.55L90.34-33.55Q90.69-33.55 90.97-33.33 91.24-33.1 91.24-32.8L91.24-32.8Q91.24-30.4 91.59-27.3L91.59-27.3Q91.79-25.7 91.89-24.65L91.89-24.65Q92.44-18.2 94.69-0.45L94.69-0.45 94.69-0.3Q94.69 0.2 94.29 0.45L94.29 0.45ZM91.49-8.55L91.99-8.55Q91.49-15.75 90.09-29.8L90.09-29.8 87.39-16.45Q86.24-10.7 86.24-9.2L86.24-9.2Q86.24-8.95 88.14-8.75 90.04-8.55 91.49-8.55L91.49-8.55ZM100.99 0.65Q100.29 0.65 100.14-0.5L100.14-0.5Q100.24-0.8 100.24-2.15L100.24-2.15Q100.24-6.75 100.39-15.8L100.39-15.8Q100.54-24.8 100.54-28.8L100.54-28.8 100.64-30.6 100.79-32.1Q100.79-32.45 101.14-32.45L101.14-32.45Q101.39-32.45 101.84-32.3L101.84-32.3 101.99-32.25Q101.99-31.15 101.94-30.25L101.94-30.25 101.94-28.3 101.94-22.85Q101.99-20.45 101.99-17.4L101.99-17.4Q101.94-17.15 101.94-16.3L101.94-16.3 101.89-15.25Q101.84-14.25 101.84-13.2L101.84-13.2Q101.84-12.05 101.89-11.1L101.89-11.1 101.94-8.95 101.79-8.55 101.84-8.6Q101.84-8.45 101.79-8.4L101.79-8.4 101.79-8.2Q101.79-7.8 101.94-7.5L101.94-7.5 101.79-2.7 101.79-2.4Q101.79-1.55 101.84-1.4L101.84-1.4Q101.84-1.15 102.09-1.15L102.09-1.15 104.69-1.05Q105.84-1.05 106.26-1.03 106.69-1 106.79-1L106.79-1 106.94-1Q107.19-1 107.44-0.73 107.69-0.45 107.69-0.15L107.69-0.15Q107.69 0.45 106.89 0.5L106.89 0.5Q106.04 0.45 102.74 0.45L102.74 0.45 102.84 0.5Q102.34 0.5 101.89 0.55L101.89 0.55Q101.49 0.65 100.99 0.65L100.99 0.65Z" opacity="1" transform="matrix(1,0,0,1,0,0)" fill="#000000" class="wordmark-text-0" data-fill-palette-color="primary" id="text-0"></path></svg></g></svg></g><g transform="matrix(1,0,0,1,0,184.94906093162263)"><svg viewBox="0 0 232.209792 81.44921687671233" height="81.44921687671233" width="232.209792"><g transform="matrix(1,0,0,1,0,0)"><svg width="232.209792" viewBox="0.5499999999999999 -29.6 138.67999999999998 48.650000000000006" height="81.44921687671233" data-palette-color="#ffffff"><path d="M9.35-13.95L10-14Q13.85-14.35 14.68-14.35 15.5-14.35 15.5-14.1L15.5-14.1Q15.5-13.8 14.33-13.48 13.15-13.15 8.6-12.65L8.6-12.65Q8.35-12.2 8-11.6L8-11.6Q7.25-10.4 7.2-10.15L7.2-10.15Q4.35-4.45 4.2-2.9L4.2-2.9Q4.15-2.45 4.15-1.75 4.15-1.05 4.55-0.6L4.55-0.6Q5.25 0.2 6.55-0.5 7.85-1.2 10.18-3.3 12.5-5.4 13.95-7.4L13.95-7.4Q14.15-7.65 14.45-7.5L14.45-7.5Q15.2-7.15 11.85-3.55L11.85-3.55Q8.65-0.1 6.5 0.7L6.5 0.7Q5.25 1.15 4.4 1.15L4.4 1.15Q2.4 1.15 1.75-0.75L1.75-0.75Q1.65-1.1 1.65-1.6L1.65-1.6Q1.65-3.35 3.25-6.9L3.25-6.9Q3-6.35 1.3-4.4L1.3-4.4Q0.85-3.9 0.6-4.4L0.6-4.4Q0.55-4.5 0.55-4.67 0.55-4.85 0.75-5.1L0.75-5.1Q3.2-8.15 4.6-10.25L4.6-10.25Q4.6-10.3 5.7-12.35L5.7-12.35Q5.2-12.25 4.67-12.25 4.15-12.25 3.9-12.58 3.65-12.9 3.85-13.35L3.85-13.35Q4.2-14.15 6.5-14.25L6.5-14.25Q6.55-14.35 6.7-14.35L6.7-14.35 9.2-19Q9.4-19.4 9.65-19.83 9.9-20.25 10.03-20.48 10.15-20.7 10.3-20.95 10.45-21.2 10.55-21.3 10.65-21.4 10.75-21.5L10.75-21.5Q10.95-21.8 11.93-21.8 12.9-21.8 13.25-21.25L13.25-21.25Q13.4-21.05 13.4-20.58 13.4-20.1 13.05-19.53 12.7-18.95 12.3-18.7 11.9-18.45 11.75-18.15L11.75-18.15 9.35-13.95ZM19.9 1.25L19.9 1.25Q17.35 1.25 17.35-1.83 17.35-4.9 21.75-9.4L21.75-9.4Q22.1-9.75 22.25-9.95L22.25-9.95 22.6-10.45Q23.3-11.4 23.25-11.65L23.25-11.65 23.1-12.1Q22.9-12.7 21.45-12.98 20-13.25 19.1-13.25L19.1-13.25Q14.6-6.9 13.9-6 13.2-5.1 12.95-5.25 12.7-5.4 12.7-5.6 12.7-5.8 13-6.2L13-6.2Q15.7-9.5 17.65-13.25L17.65-13.25Q17.05-13.35 16.75-13.68 16.45-14 16.7-14.78 16.95-15.55 18.22-16.85 19.5-18.15 20.45-18.6 21.4-19.05 21.65-19.15 21.9-19.25 22.2-19.25L22.2-19.25Q22.8-19.25 21.8-17.45L21.8-17.45 19.85-14.35Q22.1-14.2 23.7-14.2L23.7-14.2 25.45-14.25Q26.3-14.25 26.7-14.03 27.1-13.8 26.9-13.25L26.9-13.25Q26.55-12.3 25.15-10.7L25.15-10.7Q22.15-7.2 20.65-3.25L20.65-3.25Q20.3-2.3 20.3-1.6L20.3-1.6Q20.3-0.15 21.35-0.15L21.35-0.15Q21.7-0.15 22.67-0.7 23.65-1.25 25.95-3.33 28.25-5.4 29.65-7.4L29.65-7.4Q29.85-7.65 30.12-7.53 30.4-7.4 30.4-7.28 30.4-7.15 30.3-7L30.3-7Q29.55-5.65 27.6-3.55 25.65-1.45 23.8-0.15L23.8-0.15Q22 1.25 19.9 1.25ZM31.54 0.55L31.54 0.55Q30.74 0.55 29.82 0.08 28.89-0.4 28.24-1.28 27.59-2.15 27.59-3.15 27.59-4.15 28.04-5.05L28.04-5.05Q29.04-7.15 31.27-9.13 33.49-11.1 35.89-12.5 38.3-13.9 39.7-14.25 41.09-14.6 42.42-14.6 43.74-14.6 44.7-13.93 45.64-13.25 45.64-12.5L45.64-12.5Q45.64-12.25 45.59-12.2 45.55-12.15 45.34-12.25L45.34-12.25Q44.74-13.2 42.87-13.2 40.99-13.2 38.62-11.98 36.24-10.75 34.14-8.9L34.14-8.9Q32.39-7.25 31.07-5.18 29.74-3.1 29.74-2.15L29.74-2.15Q29.74-0.3 30.79-0.3 31.84-0.3 33.99-2L33.99-2Q37.55-5 38.84-6.4L38.84-6.4Q43.45-11.35 43.8-11.35L43.8-11.35Q44.39-11.35 45.24-11 46.09-10.65 45.8-10.15L45.8-10.15Q43.24-6.55 42.8-2.9L42.8-2.9Q42.74-2.45 42.74-1.75 42.74-1.05 43.14-0.6L43.14-0.6Q43.89 0.2 45.2-0.5 46.5-1.2 48.82-3.3 51.14-5.4 52.55-7.4L52.55-7.4Q52.75-7.65 53-7.53 53.25-7.4 53.25-7.3L53.25-7.3Q53.25-6.55 50.87-4.03 48.5-1.5 47.25-0.6L47.25-0.6Q44.89 1.15 42.89 1.15L42.89 1.15Q40.99 1.15 40.34-0.75L40.34-0.75Q40.2-1.35 40.2-2.1L40.2-2.1Q40.2-4.35 41.14-6.85L41.14-6.85Q40.95-6.75 39.3-4.85 37.64-2.95 35.47-1.2 33.3 0.55 31.54 0.55ZM64.44-11L64.44-11 64.69-12Q64.69-13 63.94-13L63.94-13Q61.89-13 58.34-9.8 54.79-6.6 53.84-3.35L53.84-3.35Q53.59-2.5 53.59-1.83 53.59-1.15 53.89-0.7L53.89-0.7Q54.49 0.2 55.74 0.2 56.99 0.2 58.44-0.15L58.44-0.15Q61.64-1.05 63.77-2.73 65.89-4.4 68.24-7.4L68.24-7.4Q68.44-7.65 68.72-7.55 68.99-7.45 68.99-7.28 68.99-7.1 68.84-6.75L68.84-6.75Q66.44-3.5 63.82-1.48 61.19 0.55 57.74 1.15L57.74 1.15Q56.74 1.3 55.89 1.3L55.89 1.3Q53.44 1.3 52.17 0.1 50.89-1.1 50.89-2.55 50.89-4 51.59-5.7L51.59-5.7Q52.84-8.55 56.94-11.55 61.04-14.55 63.44-14.55L63.44-14.55Q64.04-14.55 64.59-14.4L64.59-14.4Q65.99-13.9 65.99-12.8L65.99-12.8Q65.99-12.05 65.44-11.1 64.89-10.15 64.62-10.43 64.34-10.7 64.44-11ZM69.94 0.4L69.94 0.4Q68.14 1.3 67.64 1.3 67.14 1.3 67.14 1.15 67.14 1 67.22 0.83 67.29 0.65 67.92-1.05 68.54-2.75 69.49-5.35 70.44-7.95 71.14-9.7L71.14-9.7Q69.99-8.45 68.44-6.25L68.44-6.25Q68.19-5.9 67.77-6.05 67.34-6.2 68.04-7.1L68.04-7.1Q69.69-9.1 72.19-12.85L72.19-12.85Q71.44-13.25 71.44-13.63 71.44-14 71.54-14.2L71.54-14.2Q71.79-14.8 72.44-14.45L72.44-14.45Q72.74-14.35 72.84-14.35L72.84-14.35Q75.04-20.15 78.34-24.7L78.34-24.7Q80.14-27.25 82.09-28.43 84.04-29.6 85.74-29.6L85.74-29.6Q86.94-29.6 88.04-29.03 89.14-28.45 89.14-27.15L89.14-27.15Q89.14-24.65 84.84-19.9L84.84-19.9Q82.54-17.45 79.69-15.4 76.84-13.35 74.64-12.4L74.64-12.4Q72.69-8.1 71.19-3.4L71.19-3.4 74.44-7.65Q74.39-8.1 74.39-8.6L74.39-8.6Q74.39-10.1 75.04-10.45L75.04-10.45Q75.39-10.6 75.49-9.85L75.49-9.85 75.69-9.15Q79.54-13.65 81.24-14.45L81.24-14.45Q82.04-14.85 82.69-14.85 83.34-14.85 83.84-14.5 84.34-14.15 84.34-13.75L84.34-13.75Q84.34-13.05 83.19-12.5L83.19-12.5Q77.69-9.85 75.94-8L75.94-8Q77.14-3.8 78.29-1.4 79.44 1 81.92 4 84.39 7 86.44 7L86.44 7Q88.14 7 87.84 5.5L87.84 5.5Q87.64 4.15 87.02 3.18 86.39 2.2 86.89 2.2L86.89 2.2Q87.34 2.25 87.84 2.65L87.84 2.65Q88.14 3 88.54 3.88 88.94 4.75 88.94 5.35L88.94 5.35Q88.89 6.75 87.59 7.55 86.29 8.35 85.09 8.35L85.09 8.35Q82.74 8.35 80.49 6.03 78.24 3.7 76.74 0.4 75.24-2.9 74.64-6.35L74.64-6.35Q73.74-5.1 72.64-3.35L72.64-3.35Q70.39 0.1 69.94 0.4ZM86.29-24.3Q87.64-26.55 87.64-27.45 87.64-28.35 86.89-28.35 86.14-28.35 84.99-27.45L84.99-27.45Q81.79-25 79.59-21.88 77.39-18.75 75.24-14.1L75.24-14.1Q79.89-16.25 83.69-20.6L83.69-20.6Q84.94-22.05 86.29-24.3ZM89.64-13.85L89.64-13.85Q90.89-13.85 91.14-13.05L91.14-13.05Q91.24-12.6 91.01-12.18 90.79-11.75 90.69-11.5 90.59-11.25 90.54-11.1L90.54-11.1Q90.29-10.6 90.04-10.15L90.04-10.15Q87.19-4.45 87.04-2.9L87.04-2.9Q86.99-2.45 86.99-1.75 86.99-1.05 87.39-0.6L87.39-0.6Q88.09 0.2 89.39-0.5 90.69-1.2 93.01-3.3 95.34-5.4 96.79-7.4L96.79-7.4Q96.99-7.65 97.24-7.53 97.49-7.4 97.49-7.28 97.49-7.15 97.39-7L97.39-7Q96.64-5.65 94.69-3.55L94.69-3.55Q91.49-0.1 89.34 0.7L89.34 0.7Q88.09 1.15 87.24 1.15L87.24 1.15Q85.24 1.15 84.59-0.75L84.59-0.75Q84.49-1.1 84.49-1.6L84.49-1.6Q84.49-3.35 86.09-6.9L86.09-6.9Q85.84-6.35 84.14-4.4L84.14-4.4Q83.69-3.9 83.44-4.4L83.44-4.4Q83.39-4.5 83.39-4.67 83.39-4.85 83.59-5.1L83.59-5.1Q86.04-8.15 87.44-10.25L87.44-10.25Q87.34-10.5 87.54-10.9L87.54-10.9Q88.54-13.7 89.29-13.85L89.29-13.85Q89.44-13.85 89.64-13.85ZM93.59-20.5L93.59-20.5 93.19-18.9Q93.19-18.45 92.54-17.45 91.89-16.45 91.54-16.45L91.54-16.45Q89.39-16.45 89.39-17.5L89.39-17.5Q89.39-17.7 91.54-19.35L91.54-19.35 92.39-20Q93.19-20.7 93.39-20.7 93.59-20.7 93.59-20.5ZM110.04-14.2L110.04-14.2Q111.19-14.2 111.19-12.98 111.19-11.75 110.04-9.6 108.89-7.45 108.34-6.1L108.34-6.1Q107.39-3.8 107.39-2.43 107.39-1.05 107.79-0.6L107.79-0.6Q108.54 0.2 109.84-0.53 111.14-1.25 113.46-3.33 115.79-5.4 117.19-7.4L117.19-7.4Q117.39-7.65 117.66-7.53 117.94-7.4 117.94-7.28 117.94-7.15 117.84-7L117.84-7Q117.09-5.65 115.14-3.55 113.19-1.45 111.39-0.18 109.59 1.1 107.84 1.1L107.84 1.1Q106.14 1.05 105.44 0.33 104.74-0.4 104.74-1.5 104.74-2.6 104.94-3.63 105.14-4.65 105.69-6L105.69-6Q106.59-8.15 107.26-9.35 107.94-10.55 107.94-10.93 107.94-11.3 107.54-11.3L107.54-11.3Q106.74-11.3 104.49-9.35L104.49-9.35Q102.94-7.9 99.91-3.88 96.89 0.15 96.48 0.4L96.48 0.4Q94.69 1.3 94.23 1.3 93.79 1.3 93.79 1.15 93.79 1 93.89 0.73 93.98 0.45 94.86-2 95.73-4.45 96.76-7.38 97.79-10.3 98.01-10.9 98.23-11.5 98.31-11.93 98.39-12.35 98.48-12.65 98.59-12.95 98.86-13.33 99.14-13.7 99.59-13.73 100.04-13.75 100.73-13.63 101.44-13.5 101.44-13L101.44-13Q101.44-12.65 100.89-11.48 100.34-10.3 97.73-3.4L97.73-3.4Q99.54-5.6 102.29-8.47 105.04-11.35 106.94-12.85L106.94-12.85Q108.84-14.2 110.04-14.2ZM115.23 19.05L115.23 19.05Q114.83 19.05 114.23 18.9L114.23 18.9Q111.68 18.25 111.68 16.23 111.68 14.2 114.31 11.15 116.93 8.1 125.38 2.5L125.38 2.5Q128.98-4.85 130.38-9.15L130.38-9.15Q127.58-5.75 126.38-4.45L126.38-4.45Q121.88 0.55 119.13 0.55L119.13 0.55Q118.33 0.55 117.41 0.08 116.48-0.4 115.83-1.28 115.18-2.15 115.18-3.15L115.18-3.15Q115.18-5.8 118.88-9.1L118.88-9.1Q121.08-11.1 123.48-12.5 125.88-13.9 127.28-14.25 128.68-14.6 129.98-14.6 131.28-14.6 132.28-13.9 133.28-13.2 133.28-12.5L133.28-12.5Q133.28-12.1 132.88-12.25L132.88-12.25Q132.33-13.2 130.46-13.2 128.58-13.2 126.21-11.98 123.83-10.75 121.93-9.08 120.03-7.4 118.71-5.28 117.38-3.15 117.38-2.15L117.38-2.15Q117.38-0.4 118.38-0.4L118.38-0.4Q119.78-0.4 122.68-2.7L122.68-2.7Q126.98-6.05 130.93-10.85L130.93-10.85Q131.58-11.8 133.63-10.8L133.63-10.8Q134.43-10.4 134.28-10.1L134.28-10.1Q133.63-8.65 131.91-5.08 130.18-1.5 129.33 0.3L129.33 0.3Q130.48-0.3 133.26-2.73 136.03-5.15 138.13-7.6L138.13-7.6Q139.23-8.9 139.23-8L139.23-8Q139.23-6.75 133.23-1.4L133.23-1.4Q129.78 1.7 128.33 2.5L128.33 2.5Q124.08 11.25 122.63 13.5L122.63 13.5Q118.88 19.05 115.23 19.05ZM124.43 4.4L124.43 4.4Q118.43 8.9 115.83 11.53 113.23 14.15 113.23 16.45L113.23 16.45Q113.23 17.15 113.68 17.45 114.13 17.75 114.63 17.75 115.13 17.75 116.08 17 117.03 16.25 117.71 15.53 118.38 14.8 118.88 14.18 119.38 13.55 120.01 12.58 120.63 11.6 120.98 11.05 121.33 10.5 121.96 9.33 122.58 8.15 122.81 7.73 123.03 7.3 123.66 6 124.28 4.7 124.43 4.4Z" opacity="1" transform="matrix(1,0,0,1,0,0)" fill="#000000" class="slogan-text-1" data-fill-palette-color="secondary" id="text-1"></path></svg></g></svg></g></svg></g></svg></g><g><svg viewBox="0 0 244.43135999999998 336.2268751697247" height="336.2268751697247" width="244.43135999999998"><g><svg xmlns="http://www.w3.org/2000/svg" xmlns:xlink="http://www.w3.org/1999/xlink" version="1.1" x="0" y="0" viewBox="19.104999999999997 11.774000000000001 41.803000000000004 57.50200000000001" enable-background="new 0 0 80 80" xml:space="preserve" height="336.2268751697247" width="244.43135999999998" class="icon-icon-0" data-fill-palette-color="accent" id="icon-0"><g fill="#ffffff" data-fill-palette-color="accent"><path d="M40.422 25.514c1.929 0 3.497-1.569 3.497-3.498s-1.568-3.498-3.497-3.498c-1.928 0-3.496 1.569-3.496 3.498S38.494 25.514 40.422 25.514zM40.422 20.518c0.825 0 1.497 0.672 1.497 1.498 0 0.826-0.672 1.498-1.497 1.498s-1.496-0.672-1.496-1.498C38.926 21.19 39.597 20.518 40.422 20.518z" fill="#000000" data-fill-palette-color="accent"></path><path d="M47.999 29.083l0.594-0.918c0.286-0.38 0.543-0.783 0.775-1.2l0.079-0.123h-0.008c0.777-1.438 1.224-3.08 1.224-4.827 0-5.647-4.594-10.241-10.241-10.241-5.646 0-10.24 4.594-10.24 10.241 0 1.747 0.446 3.388 1.223 4.827h-0.007l0.077 0.12c0.233 0.418 0.49 0.822 0.777 1.202l0.423 0.654c-7.916 2.977-13.57 10.61-13.57 19.555 0 11.526 9.376 20.903 20.901 20.903s20.902-9.377 20.902-20.903C60.908 39.68 55.565 32.228 47.999 29.083zM40.422 14.274c4.269 0 7.741 3.473 7.741 7.741 0 1.698-0.556 3.264-1.486 4.542l-0.185 0.285-3.252 5.011-2.818 4.343-2.812-4.342-3.246-5.013h0.018c-0.045-0.056-0.086-0.115-0.129-0.172-0.98-1.297-1.57-2.907-1.57-4.655C32.682 17.747 36.154 14.274 40.422 14.274zM28.552 34.012c1.639-1.306 3.508-2.326 5.529-3.019l6.341 9.808 6.19-9.574c2.092 0.812 4.008 1.978 5.652 3.451-0.468-0.022-0.94-0.016-1.42 0.054-4.05 0.587-6.868 4.361-6.28 8.412 0.088 0.602 0.254 1.172 0.472 1.713l-0.009 0.002c0.156 0.362 0.281 0.74 0.34 1.148 0.369 2.541-1.398 4.909-3.94 5.277-2.543 0.369-4.909-1.398-5.277-3.94-0.133-0.904 0.018-1.782 0.366-2.562l-0.009-0.004c0.331-0.701 0.47-1.503 0.351-2.326-0.325-2.235-2.406-3.79-4.643-3.465-0.209 0.03-0.403 0.089-0.599 0.149l-0.005-0.018c-0.137 0.039-0.271 0.082-0.413 0.103-1.689 0.246-3.262-0.93-3.508-2.618C27.548 35.615 27.901 34.676 28.552 34.012zM31.619 64.734c-5.026-2.588-8.705-7.417-9.718-13.164 0.656 0.537 1.401 0.97 2.221 1.248 4.405 1.459 7.598 5.63 7.598 10.518C31.72 63.811 31.681 64.275 31.619 64.734zM40.006 66.776c-2.098 0-4.105-0.37-5.984-1.019 0.146-0.787 0.233-1.594 0.233-2.422 0-5.946-3.892-11.011-9.219-12.854l0.004-0.011c-1.884-0.59-3.264-2.327-3.275-4.4 0.408-3.241 1.658-6.217 3.531-8.707 0.623 2.834 3.345 4.755 6.261 4.333 0.269-0.039 0.527-0.104 0.781-0.178l0.001 0.002c0.077-0.023 0.154-0.047 0.237-0.059 0.868-0.127 1.681 0.479 1.807 1.35 0.047 0.321-0.008 0.636-0.139 0.91l0.003 0.002c-0.549 1.204-0.776 2.573-0.572 3.979 0.566 3.906 4.206 6.622 8.111 6.056s6.622-4.205 6.057-8.111c-0.091-0.611-0.262-1.186-0.488-1.73l0.007-0.002c-0.146-0.359-0.263-0.732-0.319-1.131-0.39-2.685 1.479-5.186 4.162-5.576 1.729-0.251 3.385 0.442 4.45 1.679-0.015 0-0.028-0.004-0.043-0.004-2.487 0-4.512 2.024-4.512 4.512 0 1.177 0.463 2.239 1.202 3.042l-0.005 0.006c0.752 0.827 1.224 1.915 1.224 3.119 0 0.52-0.105 1.011-0.263 1.478-0.16 0.427-0.242 0.882-0.242 1.364 0 2.044 1.579 3.708 3.58 3.881C53.629 62.479 47.318 66.776 40.006 66.776zM56.931 53.819c-0.78 0-1.415-0.635-1.415-1.415 0-0.184 0.05-0.395 0.115-0.559l0.009 0.002c0.243-0.719 0.381-1.485 0.381-2.285 0-1.868-0.726-3.566-1.901-4.842l-0.006 0.006c-0.315-0.356-0.514-0.818-0.514-1.331 0-1.109 0.902-2.012 2.012-2.012 0.799 0 1.52 0.477 1.847 1.153 0.615 1.834 0.95 3.797 0.95 5.836 0 1.824-0.276 3.585-0.773 5.25C57.428 53.746 57.188 53.819 56.931 53.819z" fill="#000000" data-fill-palette-color="accent"></path></g></svg></g></svg></g></svg></g></svg></g><defs></defs></svg><rect width="395.52" height="196.9339310264297" fill="none" stroke="none" visibility="hidden"></rect></g></svg></g></svg>