<svg xmlns="http://www.w3.org/2000/svg" version="1.1" xmlns:xlink="http://www.w3.org/1999/xlink" xmlns:svgjs="http://svgjs.dev/svgjs" width="2000" height="2250" viewBox="0 0 2000 2250"><g transform="matrix(1,0,0,1,0.00014687500004129106,0)"><svg viewBox="0 0 320 360" data-background-color="#398378" preserveAspectRatio="xMidYMid meet" height="2250" width="2000" xmlns="http://www.w3.org/2000/svg" xmlns:xlink="http://www.w3.org/1999/xlink"><g id="tight-bounds" transform="matrix(1,0,0,1,0.000023499999997511622,0)"><svg viewBox="0 0 320 360" height="360" width="320"><g><svg></svg></g><g><svg viewBox="0 0 320 360" height="360" width="320"><g><path transform="translate(-74.99272,-51.79039) scale(4.65793,4.65793)" d="M20.6 59.9l0.8 1-0.4-1.3c-0.1-0.6-0.8 0.1-0.4 0.3M21.5 59.3c0.3 0.5 0.6 1 0.6 1.5 0 0.7 0.6 1 1.1 1.2-0.7-0.8-1.1-3-1.7-2.7M59.9 16.9c1.7 0 3.3-0.2 5.1 0.2 4.4 1.1 8.1 3.3 10.6 6.4l7 11.2c0.3 2.8 0.9 5.9 0.8 9.3 0.7 0 0.6-1 1.4-1.2-0.8 2-1.2 4.5-1.4 7.4-0.5-1.6 0-4 0.1-5.3-0.7 1.1-1.1 0.3-1.1-0.2 0.1-0.8-0.3-0.7-0.6-1-1.1-1-1.8-2.1-2.6-3.8 0.5-1.3 0.6-3.2-1-4.2-0.5-0.3-1.1-0.8-1.4-1.6-0.4-1.1-1.1-2.4-0.9-4.1 0.1-0.5-1.5 1.1-2.4 0.4-3.9-2.7-7.8-5.8-12.5-8.4-2.5 0-4.3-0.9-5.2-2-0.8-1-0.2-2.3 1-2.4 0.7 0 1.5-0.2 2.1 0.2 0.1-0.4 0.5-0.9 1-0.9M50 14.6l0.2 0.1c1 0.2 1.5 1.6 2.6 1.1 0 0.7 0.1 1.4-0.1 1.9-0.3 0.8-1.2 0.8-1.9 0.8-6.7-0.4-10.6 2.4-14.7 4.8-1.1 0.7-2.3 1.2-3.2 2.1-4.3 4-9 7.7-10.1 15.1l-0.9 8.2c-0.1 0.9-1.1 1.8-0.9 2.9l0.7 4.9c-0.7-0.7-1.1 0.2-0.9 0.6 0.1 0.3 0.5 1.3 1.1 0.4 0.8 1.5 1.6 4.4 2.7 5.7 3.4 4 7.8 7.6 11.4 11.2 0.9-0.2 1.6-0.2 1.8-0.8 0.3 0.6-0.3 1.2-0.8 1.3 1.6 1 3.4 1.9 5.8 2.1 3.1 0.2 6 0.7 8.7 1.4 1.4-0.4 2.8-0.6 4.3-0.7 0.5 0 0.8-0.8 1.4-1l0.1-1c0.6 0.9 0.5-0.3 0.1-0.9 0.7 0.6 0.9 1.1 1.2 1.5 0-0.3 0.8-1.4 0.8-0.1l0.2-1.3c0.3-0.2 0.4 1.1 0.7 0.2 0.3-0.9 0.9-0.2 1.5-0.5-0.2 0.4-0.1 1.2 0.6 0.7l0.8-0.7c0.5 1.2 1.3 0.7 1.7 0.5 4.4-2.8 8.8-6.1 13-9.4l-0.1 1.3 0.5-1.6c0.5 0.5 0.9 0.1 1.1-0.2 0.6-1 1.4-2 2.7-2.9-1.6 4.3-3.5 7.7-5.9 10.5l-1 1.2c0 0.7-0.2 1.6-1 1.7-0.4 0.1-1.2-0.2-1.8 0.4-0.3 0.4 0.7 1.2-0.1 0.6-0.7-0.5-1.4 0-2.2 0.2-0.6 0.2 0.4 0.8 0.6 1.2 0.2 0.4 0.4 0.8 0.3 1.3l-1.1-1.2c-1.3 0.7-2.1 2-3.2 3-0.5 0.4-0.3 1.1-0.3 1.7-0.7 0-1.5-0.2-1.9 0.2-0.3 0.4-0.2 1-0.2 1.6-1-0.1-1.1-1.6-2-1.3-0.9 0.2-1.9 0.3-2.7 0.8 0.6 1.2-1 0.5-0.8 0.7-1.5-0.9-2.8-1.6-4.4-1-3.4-1.1-7.6-0.6-10.7-0.2 0-0.5 0.1-1-0.1-1.1-0.2 0.5-0.8 0.3-0.7 0.3-1.9-1.3-3.8-2.1-5.8-3.2-1.8 0.2-3.5-0.7-4-1.2-1.4-1.3-3-0.6-4.3-0.9-2.8-0.7-3.8-3.6-4.1-5.6-0.2-1-1-1.4-1.3-1.3-1.3-4.2-3.3-8-4.9-11.9-0.4-1-0.3-2-0.3-3.1 0.5 0.2 1 0.1 0.9-0.6-0.5-3.3-1.7-5.8-3-8.2 0.7-3.4 0.8-7.4 2.4-10.4 1.4-2.7 4-4.1 5.8-6.4 0.6-0.8 0.6-1.9 1.2-2.6 2-2 4-4.1 6.2-5.9 1-0.8 2.2 0 3.7-0.3 0.5-1.8 2.5-3.4 4.4-2.9 0.8 0.2 2.4-1.9 2.9-2.1 0.8-0.3 0.4 0.8 0.4 1.5 1.9-1.5 4.5-2.3 6.9-3.2" fill="#000000" fill-rule="nonzero" stroke="none" stroke-width="1" stroke-linecap="butt" stroke-linejoin="miter" stroke-miterlimit="10" stroke-dasharray="" stroke-dashoffset="0" font-family="none" font-weight="none" font-size="none" text-anchor="none" style="mix-blend-mode: normal" data-fill-palette-color="tertiary"></path></g><g transform="matrix(1,0,0,1,64,126.58564354470292)"><svg viewBox="0 0 192 106.82871291059415" height="106.82871291059415" width="192"><g><svg viewBox="0 0 325.059051276235 180.862708686349" height="106.82871291059415" width="192"><g transform="matrix(1,0,0,1,133.059051276235,0)"><svg viewBox="0 0 192 180.862708686349" height="180.862708686349" width="192"><g id="textblocktransform"><svg viewBox="0 0 192 180.862708686349" height="180.862708686349" width="192" id="textblock"><g><svg viewBox="0 0 192 128.75533469745687" height="128.75533469745687" width="192"><g transform="matrix(1,0,0,1,0,0)"><svg width="192" viewBox="1 -34.95 171.04999999999998 110.75312445068359" height="128.75533469745687" data-palette-color="#ffffff"><svg></svg><svg></svg><g class="wordmark-text-0" data-fill-palette-color="primary" id="text-0"><path d="M17.75-2.55c-0.3-0.133-0.6-0.2-0.9-0.2v0c-0.3 0-0.56 0.073-0.78 0.22-0.213 0.153-0.453 0.38-0.72 0.68v0c-0.4 0.4-0.817 0.733-1.25 1v0c-0.4 0.233-1.133 0.45-2.2 0.65v0c-0.467 0.067-0.85 0.1-1.15 0.1v0c-1.4 0-2.857-0.31-4.37-0.93-1.52-0.613-2.597-1.353-3.23-2.22v0c-0.667-0.933-0.983-1.933-0.95-3v0c0.033-1.6 0.7-3.2 2-4.8v0c1.267-1.533 2.427-2.617 3.48-3.25 1.047-0.633 2.487-1.033 4.32-1.2v0c0.4 0 0.977-0.067 1.73-0.2 0.747-0.133 1.12-0.317 1.12-0.55v0c0-0.467-0.207-0.893-0.62-1.28-0.42-0.38-1.263-0.57-2.53-0.57v0c-0.467 0-1.167 0.033-2.1 0.1v0c-0.933 0.067-1.583 0.1-1.95 0.1v0c-1.133 0-1.95-0.183-2.45-0.55v0c-0.133-0.067-0.2-0.383-0.2-0.95v0c0-1 0.35-1.633 1.05-1.9v0c1.433-0.533 2.917-0.817 4.45-0.85v0c1.933 0 3.727 0.423 5.38 1.27 1.647 0.853 2.853 1.913 3.62 3.18v0c0.767 1.267 1.267 3.017 1.5 5.25v0c0.267 2.5 0.4 5.683 0.4 9.55v0c0 1.067-0.15 1.683-0.45 1.85v0c-0.267 0.167-0.517 0.25-0.75 0.25v0c-0.3 0-0.573-0.09-0.82-0.27-0.253-0.187-0.53-0.447-0.83-0.78v0c-0.3-0.367-0.567-0.6-0.8-0.7zM9.85-3.15c1.567-0.467 3.1-1.217 4.6-2.25v0c0.333-0.233 0.633-0.533 0.9-0.9 0.267-0.367 0.433-0.6 0.5-0.7v0c0.067-0.1 0.127-0.393 0.18-0.88 0.047-0.48 0.053-0.87 0.02-1.17v0c-0.033-0.1-0.09-0.367-0.17-0.8-0.087-0.433-0.213-0.817-0.38-1.15v0c-0.167-0.267-0.433-0.517-0.8-0.75-0.367-0.233-0.7-0.333-1-0.3v0c-0.633 0.033-1.317 0.267-2.05 0.7-0.733 0.433-1.417 1.017-2.05 1.75v0c-0.633 0.767-1.123 1.54-1.47 2.32-0.353 0.787-0.53 1.513-0.53 2.18v0c0.067 0.9 0.317 1.5 0.75 1.8v0c0.233 0.167 0.517 0.25 0.85 0.25v0c0.267 0 0.483-0.033 0.65-0.1zM34.7-18.85c0 0.2-0.033 0.46-0.1 0.78-0.067 0.313-0.083 0.52-0.05 0.62v0c2.3-0.5 4.25-0.75 5.85-0.75v0c2.5 0 4.383 1.2 5.65 3.6v0c1.033 2.033 1.55 4.283 1.55 6.75v0c0 0.633-0.067 1.55-0.2 2.75v0c-0.1 0.8-0.417 1.44-0.95 1.92-0.533 0.487-1.167 0.73-1.9 0.73v0c-0.767 0-1.307-0.143-1.62-0.43-0.32-0.28-0.503-0.603-0.55-0.97-0.053-0.367-0.08-0.95-0.08-1.75v0l-0.05-1.05c-0.067-2-0.2-3.733-0.4-5.2v0c-0.1-0.6-0.323-1.027-0.67-1.28-0.353-0.247-0.813-0.37-1.38-0.37v0c-0.533 0-1.167 0.083-1.9 0.25v0c-1.133 0.3-1.89 0.533-2.27 0.7-0.387 0.167-0.947 0.517-1.68 1.05v0c-0.233 0.167-0.4 0.5-0.5 1-0.1 0.5-0.15 0.783-0.15 0.85v0c-0.433 2.133-0.9 4.683-1.4 7.65v0c-0.033 0.133-0.1 0.45-0.2 0.95-0.1 0.5-0.29 0.86-0.57 1.08-0.287 0.213-0.697 0.287-1.23 0.22v0c-2.1-0.267-3.167-1.15-3.2-2.65v0c-0.033-1.933 0.117-4.217 0.45-6.85v0c0.233-1.9 0.45-3.433 0.65-4.6v0c0.067-0.533 0.16-1.183 0.28-1.95 0.113-0.767 0.22-1.65 0.32-2.65v0c0.1-0.767 0.2-1.333 0.3-1.7 0.1-0.367 0.333-0.677 0.7-0.93 0.367-0.247 0.933-0.37 1.7-0.37v0c0.967 0 1.767 0.217 2.4 0.65 0.633 0.433 1.033 1.05 1.2 1.85v0zM57.25-23.3c-0.067 0.2-0.307 0.417-0.72 0.65-0.42 0.233-0.763 0.45-1.03 0.65v0l-1.4-0.75c-1.367-0.733-2.3-1.317-2.8-1.75v0c-0.267-0.2-0.4-0.45-0.4-0.75v0c0-0.2 0.077-0.377 0.23-0.53 0.147-0.147 0.37-0.22 0.67-0.22v0c1.3 0 2.883 0.333 4.75 1v0c0.2 0.033 0.383 0.257 0.55 0.67 0.167 0.42 0.217 0.763 0.15 1.03zM52.75-14c0.1-0.433 0.167-0.75 0.2-0.95 0.033-0.2 0.05-0.417 0.05-0.65v0c0-0.467 0.143-0.833 0.43-1.1 0.28-0.267 0.82-0.4 1.62-0.4v0c0.933 0 1.76 0.29 2.48 0.87 0.713 0.587 1.153 1.347 1.32 2.28v0c0.1 0.467 0.167 0.983 0.2 1.55 0.033 0.567 0.05 0.933 0.05 1.1v0l0.7 8.55c0.1 0.9-0.023 1.59-0.37 2.07-0.353 0.487-1.013 0.73-1.98 0.73v0c-0.833 0-1.54-0.233-2.12-0.7-0.587-0.467-0.947-1.067-1.08-1.8v0l-1.3-10.6zM89.1-13.05c-0.067-1.267-0.6-2.2-1.6-2.8v0c-0.8 0.2-1.45 0.45-1.95 0.75-0.5 0.3-0.867 0.59-1.1 0.87-0.233 0.287-0.65 0.83-1.25 1.63v0c-0.2 0.267-0.407 0.633-0.62 1.1-0.22 0.467-0.347 0.75-0.38 0.85v0c-0.1 0.233-0.15 0.483-0.15 0.75v0c0 0.2 0.043 0.51 0.13 0.93 0.08 0.413 0.103 0.737 0.07 0.97v0c-0.033 0.5-0.017 1.283 0.05 2.35v0l0.05 1.55c0 0.467-0.017 0.817-0.05 1.05v0c-0.067 0.533-0.233 1-0.5 1.4-0.267 0.4-0.633 0.6-1.1 0.6v0c-0.167 0-0.383-0.05-0.65-0.15v0c-0.233-0.067-0.617-0.183-1.15-0.35-0.533-0.167-0.95-0.427-1.25-0.78-0.3-0.347-0.45-0.853-0.45-1.52v0c0-1.733-0.167-4.333-0.5-7.8v0c-0.067-0.367-0.133-0.983-0.2-1.85v0c-0.033-0.367-0.2-0.65-0.5-0.85-0.3-0.2-0.667-0.3-1.1-0.3v0c-0.7 0-1.233 0.183-1.6 0.55v0c-1.533 0.867-2.65 1.85-3.35 2.95-0.7 1.1-1.05 2.517-1.05 4.25v0l0.05 1.7c0 1.1-0.283 2.117-0.85 3.05v0c-0.167 0.3-0.507 0.557-1.02 0.77-0.52 0.22-0.963 0.297-1.33 0.23v0c-0.333-0.033-0.673-0.26-1.02-0.68-0.353-0.413-0.53-0.787-0.53-1.12v0c-0.1-2.8-0.15-5.583-0.15-8.35v0c0-2.5 0.033-4.367 0.1-5.6v0c0.033-0.633 0.25-1.133 0.65-1.5 0.4-0.367 0.883-0.55 1.45-0.55v0c0.733 0 1.383 0.267 1.95 0.8v0c0.3 0.567 0.55 0.973 0.75 1.22 0.2 0.253 0.417 0.38 0.65 0.38v0c0.2 0 0.433-0.11 0.7-0.33 0.267-0.213 0.633-0.57 1.1-1.07v0c1.1-1.2 2.25-1.8 3.45-1.8v0c1.3 0 2.867 0.65 4.7 1.95v0c0.133 0.1 0.317 0.24 0.55 0.42 0.233 0.187 0.433 0.28 0.6 0.28v0c0.233 0 0.6-0.267 1.1-0.8v0c1.867-1.733 4.233-2.683 7.1-2.85v0c0.9-0.033 1.81 0.307 2.73 1.02 0.913 0.72 1.487 1.58 1.72 2.58v0c0.4 1.7 0.683 3.7 0.85 6v0c0.2 3.467 0.283 6.067 0.25 7.8v0c-0.033 0.8-0.25 1.423-0.65 1.87-0.4 0.453-0.917 0.68-1.55 0.68v0c-0.5 0-1.033-0.15-1.6-0.45v0c-0.233-0.1-0.45-0.283-0.65-0.55-0.2-0.267-0.3-0.5-0.3-0.7v0l-0.3-5.3c-0.033-0.567-0.067-1.293-0.1-2.18-0.033-0.88-0.1-1.903-0.2-3.07zM114.7-2.55c-0.3-0.133-0.6-0.2-0.9-0.2v0c-0.3 0-0.557 0.073-0.77 0.22-0.22 0.153-0.463 0.38-0.73 0.68v0c-0.4 0.4-0.817 0.733-1.25 1v0c-0.4 0.233-1.133 0.45-2.2 0.65v0c-0.467 0.067-0.85 0.1-1.15 0.1v0c-1.4 0-2.857-0.31-4.37-0.93-1.52-0.613-2.597-1.353-3.23-2.22v0c-0.667-0.933-0.983-1.933-0.95-3v0c0.033-1.6 0.7-3.2 2-4.8v0c1.267-1.533 2.427-2.617 3.48-3.25 1.047-0.633 2.487-1.033 4.32-1.2v0c0.4 0 0.977-0.067 1.73-0.2 0.747-0.133 1.12-0.317 1.12-0.55v0c0-0.467-0.207-0.893-0.62-1.28-0.42-0.38-1.263-0.57-2.53-0.57v0c-0.467 0-1.167 0.033-2.1 0.1v0c-0.933 0.067-1.583 0.1-1.95 0.1v0c-1.133 0-1.95-0.183-2.45-0.55v0c-0.133-0.067-0.2-0.383-0.2-0.95v0c0-1 0.35-1.633 1.05-1.9v0c1.433-0.533 2.917-0.817 4.45-0.85v0c1.933 0 3.727 0.423 5.38 1.27 1.647 0.853 2.853 1.913 3.62 3.18v0c0.767 1.267 1.267 3.017 1.5 5.25v0c0.267 2.5 0.4 5.683 0.4 9.55v0c0 1.067-0.15 1.683-0.45 1.85v0c-0.267 0.167-0.517 0.25-0.75 0.25v0c-0.3 0-0.573-0.09-0.82-0.27-0.253-0.187-0.53-0.447-0.83-0.78v0c-0.3-0.367-0.567-0.6-0.8-0.7zM106.8-3.15c1.567-0.467 3.1-1.217 4.6-2.25v0c0.333-0.233 0.633-0.533 0.9-0.9 0.267-0.367 0.433-0.6 0.5-0.7v0c0.067-0.1 0.127-0.393 0.18-0.88 0.047-0.48 0.053-0.87 0.02-1.17v0c-0.033-0.1-0.09-0.367-0.17-0.8-0.087-0.433-0.213-0.817-0.38-1.15v0c-0.167-0.267-0.433-0.517-0.8-0.75-0.367-0.233-0.7-0.333-1-0.3v0c-0.633 0.033-1.317 0.267-2.05 0.7-0.733 0.433-1.417 1.017-2.05 1.75v0c-0.633 0.767-1.123 1.54-1.47 2.32-0.353 0.787-0.53 1.513-0.53 2.18v0c0.067 0.9 0.317 1.5 0.75 1.8v0c0.233 0.167 0.517 0.25 0.85 0.25v0c0.267 0 0.483-0.033 0.65-0.1zM129.4-2.3c0.667-0.8 1.15-1.433 1.45-1.9v0c0.367-0.5 0.75-0.75 1.15-0.75v0c0.4 0 0.7 0.25 0.9 0.75v0c0.467 1.333 0.7 2.383 0.7 3.15v0c0 0.333-0.017 0.583-0.05 0.75v0c-0.133 0.667-0.507 1.133-1.12 1.4-0.62 0.267-1.347 0.367-2.18 0.3v0c-0.3 0-0.81 0-1.53 0-0.713 0-1.327-0.1-1.84-0.3-0.52-0.2-0.98-0.533-1.38-1v0c-0.867-1.033-1.3-2.033-1.3-3v0c0-7.8-0.033-13.667-0.1-17.6v0l-0.05-8.8c0-1.167-0.117-2.233-0.35-3.2v0c-0.033-0.167-0.05-0.367-0.05-0.6v0c0-1.233 0.833-1.85 2.5-1.85v0c1.1 0 2.027 0.357 2.78 1.07 0.747 0.72 1.087 1.663 1.02 2.83v0c-0.1 1.767-0.233 4.417-0.4 7.95v0l-0.3 6c-0.267 5.667-0.45 9.917-0.55 12.75v0c-0.033 0.333-0.017 0.7 0.05 1.1 0.067 0.4 0.117 0.65 0.15 0.75v0z" fill="#000000" fill-rule="nonzero" stroke="none" stroke-width="1" stroke-linecap="butt" stroke-linejoin="miter" stroke-miterlimit="10" stroke-dasharray="" stroke-dashoffset="0" font-family="none" font-weight="none" font-size="none" text-anchor="none" style="mix-blend-mode: normal" data-fill-palette-color="primary" opacity="1"></path><path transform="translate(0,57.35)" d="M1.7-18.65c-0.233-0.267-0.39-0.55-0.47-0.85-0.087-0.3-0.163-0.717-0.23-1.25v0c0.3-0.7 0.85-1.05 1.65-1.05v0c0.4 0.067 0.683 0.1 0.85 0.1v0c0.667 0 1.083-0.2 1.25-0.6 0.167-0.4 0.25-0.867 0.25-1.4 0-0.533 0-0.95 0-1.25v0l0.15-3c0.033-0.667 0.077-1.493 0.13-2.48 0.047-0.98 0.103-2.12 0.17-3.42v0c0.033-0.7 0.21-1.217 0.53-1.55 0.313-0.333 0.753-0.5 1.32-0.5v0c0.4 0 0.717 0.033 0.95 0.1v0c1.367 0.3 2.283 0.733 2.75 1.3 0.467 0.567 0.783 1.417 0.95 2.55v0c0.033 0.233 0 0.717-0.1 1.45v0l-0.9 7.8c-0.033 0.2-0.083 0.44-0.15 0.72-0.067 0.287-0.1 0.497-0.1 0.63v0c0 0.3 0.167 0.5 0.5 0.6 0.333 0.1 0.95 0.133 1.85 0.1v0c1.533-0.333 2.7-0.55 3.5-0.65v0c0.167-0.033 0.433-0.05 0.8-0.05v0c0.4 0 0.667 0.05 0.8 0.15v0c0.133 0.067 0.243 0.257 0.33 0.57 0.08 0.32 0.12 0.68 0.12 1.08v0c0 0.367-0.04 0.7-0.12 1-0.087 0.3-0.197 0.467-0.33 0.5v0c-0.9 0.267-1.967 0.483-3.2 0.65v0c-1.467 0.267-2.55 0.5-3.25 0.7v0c-0.367 0.1-0.733 0.35-1.1 0.75-0.367 0.4-0.567 0.767-0.6 1.1v0c-0.067 1.633-0.117 3.3-0.15 5v0c-0.033 1.3 0.017 2.6 0.15 3.9v0c0.1 1.1 0.317 1.89 0.65 2.37 0.333 0.487 0.833 0.73 1.5 0.73v0c0.533 0 1.3-0.183 2.3-0.55v0c0.533-0.233 1-0.35 1.4-0.35v0c0.633 0 1.083 0.35 1.35 1.05v0c0.1 0.233 0.15 0.467 0.15 0.7v0c0 0.433-0.157 0.783-0.47 1.05-0.32 0.267-0.747 0.5-1.28 0.7v0c-1 0.367-2.017 0.567-3.05 0.6v0c-1.4 0-2.717-0.343-3.95-1.03-1.233-0.68-2.207-1.637-2.92-2.87-0.72-1.233-1.03-2.65-0.93-4.25v0c0.033-0.633 0.05-1.633 0.05-3v0c0-2.167-0.083-4.367-0.25-6.6v0c-0.033-0.2-0.15-0.34-0.35-0.42-0.2-0.087-0.533-0.18-1-0.28v0c-0.767-0.133-1.267-0.317-1.5-0.55zM29.1-21.2c0.1 0.333 0.117 0.85 0.05 1.55v0l-0.6 5.9c0.167-0.133 0.417-0.61 0.75-1.43 0.333-0.813 0.65-1.48 0.95-2 0.3-0.513 0.533-0.853 0.7-1.02v0c1.567-1.5 3.333-2.4 5.3-2.7 1.967-0.3 4.133-0.433 6.5-0.4v0c0.233 0 0.493 0.09 0.78 0.27 0.28 0.187 0.42 0.337 0.42 0.45 0 0.12-0.1 0.303-0.3 0.55-0.2 0.253-0.383 0.413-0.55 0.48v0c-2 0.667-3.757 1.433-5.27 2.3-1.52 0.867-2.83 2-3.93 3.4v0c-2.6 3.3-4.1 6.7-4.5 10.2v0c-0.1 0.933-0.383 1.557-0.85 1.87-0.467 0.32-1.117 0.48-1.95 0.48v0c-0.933 0-1.767-0.4-2.5-1.2-0.733-0.8-1.1-1.683-1.1-2.65v0c0.033-3.533 0.05-8.833 0.05-15.9v0c0-0.967 0.217-1.643 0.65-2.03 0.433-0.38 1.217-0.57 2.35-0.57v0c0.833 0 1.543 0.233 2.13 0.7 0.58 0.467 0.887 1.05 0.92 1.75zM59.1-2.55c-0.3-0.133-0.6-0.2-0.9-0.2v0c-0.3 0-0.56 0.073-0.78 0.22-0.213 0.153-0.453 0.38-0.72 0.68v0c-0.4 0.4-0.817 0.733-1.25 1v0c-0.4 0.233-1.133 0.45-2.2 0.65v0c-0.467 0.067-0.85 0.1-1.15 0.1v0c-1.4 0-2.857-0.31-4.37-0.93-1.52-0.613-2.597-1.353-3.23-2.22v0c-0.667-0.933-0.983-1.933-0.95-3v0c0.033-1.6 0.7-3.2 2-4.8v0c1.267-1.533 2.427-2.617 3.48-3.25 1.047-0.633 2.487-1.033 4.32-1.2v0c0.4 0 0.977-0.067 1.73-0.2 0.747-0.133 1.12-0.317 1.12-0.55v0c0-0.467-0.207-0.893-0.62-1.28-0.42-0.38-1.263-0.57-2.53-0.57v0c-0.467 0-1.167 0.033-2.1 0.1v0c-0.933 0.067-1.583 0.1-1.95 0.1v0c-1.133 0-1.95-0.183-2.45-0.55v0c-0.133-0.067-0.2-0.383-0.2-0.95v0c0-1 0.35-1.633 1.05-1.9v0c1.433-0.533 2.917-0.817 4.45-0.85v0c1.933 0 3.727 0.423 5.38 1.27 1.647 0.853 2.853 1.913 3.62 3.18v0c0.767 1.267 1.267 3.017 1.5 5.25v0c0.267 2.5 0.4 5.683 0.4 9.55v0c0 1.067-0.15 1.683-0.45 1.85v0c-0.267 0.167-0.517 0.25-0.75 0.25v0c-0.3 0-0.573-0.09-0.82-0.27-0.253-0.187-0.53-0.447-0.83-0.78v0c-0.3-0.367-0.567-0.6-0.8-0.7zM51.2-3.15c1.567-0.467 3.1-1.217 4.6-2.25v0c0.333-0.233 0.633-0.533 0.9-0.9 0.267-0.367 0.433-0.6 0.5-0.7v0c0.067-0.1 0.127-0.393 0.18-0.88 0.047-0.48 0.053-0.87 0.02-1.17v0c-0.033-0.1-0.09-0.367-0.17-0.8-0.087-0.433-0.213-0.817-0.38-1.15v0c-0.167-0.267-0.433-0.517-0.8-0.75-0.367-0.233-0.7-0.333-1-0.3v0c-0.633 0.033-1.317 0.267-2.05 0.7-0.733 0.433-1.417 1.017-2.05 1.75v0c-0.633 0.767-1.123 1.54-1.47 2.32-0.353 0.787-0.53 1.513-0.53 2.18v0c0.067 0.9 0.317 1.5 0.75 1.8v0c0.233 0.167 0.517 0.25 0.85 0.25v0c0.267 0 0.483-0.033 0.65-0.1zM86.7-5.1c-1 1.133-2.017 2.023-3.05 2.67-1.033 0.653-2.183 0.98-3.45 0.98v0c-0.267 0-0.633-0.033-1.1-0.1v0l-1 0.05c-4.2 0.033-7.267-1.967-9.2-6v0c-0.433-0.933-0.65-2.05-0.65-3.35v0c0-1.133 0.167-2.217 0.5-3.25 0.333-1.033 0.8-1.883 1.4-2.55v0l0.95-1.15c0.467-0.6 0.833-1.017 1.1-1.25v0c1.167-1.133 2.717-1.7 4.65-1.7v0c1 0 1.983 0.167 2.95 0.5 0.967 0.333 1.817 0.783 2.55 1.35v0c0.133 0.1 0.267 0.307 0.4 0.62 0.133 0.32 0.2 0.58 0.2 0.78v0c0 0.267-0.2 0.557-0.6 0.87-0.4 0.32-0.767 0.463-1.1 0.43v0c-2.267-0.267-4.083 0.273-5.45 1.62-1.367 1.353-2.05 3.197-2.05 5.53v0c0 1.533 0.327 2.617 0.98 3.25 0.647 0.633 1.72 0.95 3.22 0.95v0c0.933 0 1.817-0.193 2.65-0.58 0.833-0.38 1.8-0.92 2.9-1.62v0l0.95-0.6c0.333-0.167 0.777-0.277 1.33-0.33 0.547-0.047 0.97-0.087 1.27-0.12v0c-0.033 0.3-0.04 0.59-0.02 0.87 0.013 0.287 0.02 0.513 0.02 0.68v0c0 0.733-0.117 1.217-0.35 1.45zM97.1-22.45c0 0.167-0.04 0.557-0.12 1.17-0.087 0.62-0.13 1.113-0.13 1.48v0c0 0.267 0.033 0.433 0.1 0.5v0l1.45-1.4c0.533-0.6 1-1.067 1.4-1.4v0c0.867-0.8 1.75-1.2 2.65-1.2v0c0.733 0 1.283 0.283 1.65 0.85v0c0.2 0.333 0.3 0.717 0.3 1.15v0c0 0.333-0.067 0.583-0.2 0.75v0c-0.5 0.767-1.4 1.917-2.7 3.45v0c-0.5 0.533-0.75 1.05-0.75 1.55v0c0 0.467 0.233 0.983 0.7 1.55v0c0.4 0.467 0.967 1.167 1.7 2.1v0c1.433 1.833 2.71 3.307 3.83 4.42 1.113 1.12 2.403 2.047 3.87 2.78v0c0.167 0.067 0.3 0.223 0.4 0.47 0.1 0.253 0.133 0.447 0.1 0.58v0c-0.033 0.167-0.167 0.333-0.4 0.5-0.233 0.167-0.433 0.233-0.6 0.2v0c-0.5-0.133-0.917-0.217-1.25-0.25v0c-1.733-0.333-2.967-0.75-3.7-1.25v0c-1.2-0.833-2.9-2.283-5.1-4.35v0c-1.333-1.233-2.017-1.867-2.05-1.9v0l-0.9-0.85c-0.7-0.7-1.05-1.05-1.05-1.05v0c-0.067 0.167-0.1 0.417-0.1 0.75v0c0 0.3 0.027 0.623 0.08 0.97 0.047 0.353 0.053 0.597 0.02 0.73v0c-0.2 3.733-0.333 6.467-0.4 8.2v0c-0.067 1.1-0.323 1.933-0.77 2.5-0.453 0.567-1.08 0.783-1.88 0.65v0c-0.267-0.033-0.557-0.167-0.87-0.4-0.32-0.233-0.513-0.467-0.58-0.7v0c-0.367-1.467-0.55-2.9-0.55-4.3v0c0-4.033 0.05-8.05 0.15-12.05v0l0.5-16.3c0.033-1.767 0.95-2.65 2.75-2.65v0c1.233 0 2.133 0.233 2.7 0.7 0.567 0.467 0.817 1.2 0.75 2.2v0l-0.5 5.1c-0.133 1.167-0.3 2.75-0.5 4.75zM118.5-23.3c-0.067 0.2-0.307 0.417-0.72 0.65-0.42 0.233-0.763 0.45-1.03 0.65v0l-1.4-0.75c-1.367-0.733-2.3-1.317-2.8-1.75v0c-0.267-0.2-0.4-0.45-0.4-0.75v0c0-0.2 0.077-0.377 0.23-0.53 0.147-0.147 0.37-0.22 0.67-0.22v0c1.3 0 2.883 0.333 4.75 1v0c0.2 0.033 0.383 0.257 0.55 0.67 0.167 0.42 0.217 0.763 0.15 1.03zM114-14c0.1-0.433 0.167-0.75 0.2-0.95 0.033-0.2 0.05-0.417 0.05-0.65v0c0-0.467 0.143-0.833 0.43-1.1 0.28-0.267 0.82-0.4 1.62-0.4v0c0.933 0 1.76 0.29 2.48 0.87 0.713 0.587 1.153 1.347 1.32 2.28v0c0.1 0.467 0.167 0.983 0.2 1.55 0.033 0.567 0.05 0.933 0.05 1.1v0l0.7 8.55c0.1 0.9-0.023 1.59-0.37 2.07-0.353 0.487-1.013 0.73-1.98 0.73v0c-0.833 0-1.54-0.233-2.12-0.7-0.587-0.467-0.947-1.067-1.08-1.8v0l-1.3-10.6zM133.3-18.85c0 0.2-0.033 0.46-0.1 0.78-0.067 0.313-0.083 0.52-0.05 0.62v0c2.3-0.5 4.25-0.75 5.85-0.75v0c2.5 0 4.383 1.2 5.65 3.6v0c1.033 2.033 1.55 4.283 1.55 6.75v0c0 0.633-0.067 1.55-0.2 2.75v0c-0.1 0.8-0.417 1.44-0.95 1.92-0.533 0.487-1.167 0.73-1.9 0.73v0c-0.767 0-1.307-0.143-1.62-0.43-0.32-0.28-0.503-0.603-0.55-0.97-0.053-0.367-0.08-0.95-0.08-1.75v0l-0.05-1.05c-0.067-2-0.2-3.733-0.4-5.2v0c-0.1-0.6-0.323-1.027-0.67-1.28-0.353-0.247-0.813-0.37-1.38-0.37v0c-0.533 0-1.167 0.083-1.9 0.25v0c-1.133 0.3-1.89 0.533-2.27 0.7-0.387 0.167-0.947 0.517-1.68 1.05v0c-0.233 0.167-0.4 0.5-0.5 1-0.1 0.5-0.15 0.783-0.15 0.85v0c-0.433 2.133-0.9 4.683-1.4 7.65v0c-0.033 0.133-0.1 0.45-0.2 0.95-0.1 0.5-0.29 0.86-0.57 1.08-0.287 0.213-0.697 0.287-1.23 0.22v0c-2.1-0.267-3.167-1.15-3.2-2.65v0c-0.033-1.933 0.117-4.217 0.45-6.85v0c0.233-1.9 0.45-3.433 0.65-4.6v0c0.067-0.533 0.16-1.183 0.28-1.95 0.113-0.767 0.22-1.65 0.32-2.65v0c0.1-0.767 0.2-1.333 0.3-1.7 0.1-0.367 0.333-0.677 0.7-0.93 0.367-0.247 0.933-0.37 1.7-0.37v0c0.967 0 1.767 0.217 2.4 0.65 0.633 0.433 1.033 1.05 1.2 1.85v0zM167.45-12.6c-0.1 2.4-0.267 4.217-0.5 5.45-0.233 1.233-0.69 2.407-1.37 3.52-0.687 1.12-1.797 2.413-3.33 3.88v0l1.75 0.95c1.067 0.6 1.85 1.017 2.35 1.25v0c1.5 0.7 2.633 1.593 3.4 2.68 0.767 1.08 1.15 2.27 1.15 3.57v0c0 1.6-0.533 3.183-1.6 4.75v0c-1.133 1.667-2.55 2.91-4.25 3.73-1.7 0.813-3.517 1.237-5.45 1.27v0c-1.433 0.033-2.9-0.2-4.4-0.7v0c-0.7-0.233-1.4-0.74-2.1-1.52-0.7-0.787-1.257-1.663-1.67-2.63-0.42-0.967-0.613-1.817-0.58-2.55v0c0.033-0.167 0.1-0.34 0.2-0.52 0.1-0.187 0.217-0.297 0.35-0.33v0c0.033-0.033 0.1-0.05 0.2-0.05v0c0.1 0 0.243 0.043 0.43 0.13 0.18 0.08 0.303 0.137 0.37 0.17v0c0.167 0.067 0.283 0.217 0.35 0.45v0c0.467 1.033 0.983 1.85 1.55 2.45 0.567 0.6 1.317 0.867 2.25 0.8v0c3.433-0.233 5.783-1.183 7.05-2.85v0c0.433-0.533 0.793-1.143 1.08-1.83 0.28-0.68 0.42-1.32 0.42-1.92v0c0-0.867-0.21-1.5-0.63-1.9-0.413-0.4-1.053-0.683-1.92-0.85v0c-0.933-0.167-1.823-0.4-2.67-0.7-0.853-0.3-1.88-0.75-3.08-1.35v0c-0.6-0.3-1.017-0.567-1.25-0.8-0.233-0.233-0.35-0.517-0.35-0.85v0c0-0.333 0.2-1.183 0.6-2.55v0c0.067-0.2-0.24-0.533-0.92-1-0.687-0.467-1.28-0.85-1.78-1.15v0c-1.8-1.067-2.7-2.8-2.7-5.2v0c0-0.667 0.05-1.3 0.15-1.9v0c0.6-3.667 2.383-6.267 5.35-7.8v0c0.7-0.367 1.433-0.55 2.2-0.55v0c0.567 0 1.15 0.083 1.75 0.25 0.6 0.167 0.95 0.267 1.05 0.3v0l1.05 0.3c0.5 0.133 0.983 0.2 1.45 0.2v0c0.633 0 1.21-0.117 1.73-0.35 0.513-0.233 1.037-0.6 1.57-1.1v0c0.767-0.633 1.583-0.95 2.45-0.95v0c0.633 0 1.2 0.173 1.7 0.52 0.5 0.353 0.867 0.863 1.1 1.53v0c0.067 0.267 0.1 0.483 0.1 0.65v0c0 0.3-0.05 0.533-0.15 0.7v0c-0.1 0.133-0.383 0.567-0.85 1.3v0c-0.233 0.433-0.45 0.8-0.65 1.1-0.2 0.3-0.517 0.633-0.95 1v0c-0.3 0.167-0.617 0.29-0.95 0.37-0.333 0.087-0.593 0.163-0.78 0.23-0.18 0.067-0.27 0.2-0.27 0.4zM156.95-13.35c-1.033 1.2-1.55 2.417-1.55 3.65v0c0 0.867 0.273 1.69 0.82 2.47 0.553 0.787 1.397 1.463 2.53 2.03v0c1.267-0.5 2.25-1.367 2.95-2.6 0.7-1.233 1.05-2.583 1.05-4.05v0c0-0.9-0.133-1.717-0.4-2.45-0.267-0.733-0.8-1.3-1.6-1.7v0c-1.533 0.6-2.8 1.483-3.8 2.65z" fill="#000000" fill-rule="nonzero" stroke="none" stroke-width="1" stroke-linecap="butt" stroke-linejoin="miter" stroke-miterlimit="10" stroke-dasharray="" stroke-dashoffset="0" font-family="none" font-weight="none" font-size="none" text-anchor="none" style="mix-blend-mode: normal" data-fill-palette-color="primary" opacity="1"></path></g></svg></g></svg></g><g transform="matrix(1,0,0,1,0,143.15838597369188)"><svg viewBox="0 0 107.4941327902475 37.70432271265711" height="37.70432271265711" width="107.4941327902475"><g transform="matrix(1,0,0,1,0,0)"><svg width="107.4941327902475" viewBox="0.5499999999999999 -29.6 138.67999999999998 48.650000000000006" height="37.70432271265711" data-palette-color="#ffffff"><path d="M9.35-13.95L10-14Q13.85-14.35 14.68-14.35 15.5-14.35 15.5-14.1L15.5-14.1Q15.5-13.8 14.33-13.48 13.15-13.15 8.6-12.65L8.6-12.65Q8.35-12.2 8-11.6L8-11.6Q7.25-10.4 7.2-10.15L7.2-10.15Q4.35-4.45 4.2-2.9L4.2-2.9Q4.15-2.45 4.15-1.75 4.15-1.05 4.55-0.6L4.55-0.6Q5.25 0.2 6.55-0.5 7.85-1.2 10.18-3.3 12.5-5.4 13.95-7.4L13.95-7.4Q14.15-7.65 14.45-7.5L14.45-7.5Q15.2-7.15 11.85-3.55L11.85-3.55Q8.65-0.1 6.5 0.7L6.5 0.7Q5.25 1.15 4.4 1.15L4.4 1.15Q2.4 1.15 1.75-0.75L1.75-0.75Q1.65-1.1 1.65-1.6L1.65-1.6Q1.65-3.35 3.25-6.9L3.25-6.9Q3-6.35 1.3-4.4L1.3-4.4Q0.85-3.9 0.6-4.4L0.6-4.4Q0.55-4.5 0.55-4.67 0.55-4.85 0.75-5.1L0.75-5.1Q3.2-8.15 4.6-10.25L4.6-10.25Q4.6-10.3 5.7-12.35L5.7-12.35Q5.2-12.25 4.67-12.25 4.15-12.25 3.9-12.58 3.65-12.9 3.85-13.35L3.85-13.35Q4.2-14.15 6.5-14.25L6.5-14.25Q6.55-14.35 6.7-14.35L6.7-14.35 9.2-19Q9.4-19.4 9.65-19.83 9.9-20.25 10.03-20.48 10.15-20.7 10.3-20.95 10.45-21.2 10.55-21.3 10.65-21.4 10.75-21.5L10.75-21.5Q10.95-21.8 11.93-21.8 12.9-21.8 13.25-21.25L13.25-21.25Q13.4-21.05 13.4-20.58 13.4-20.1 13.05-19.53 12.7-18.95 12.3-18.7 11.9-18.45 11.75-18.15L11.75-18.15 9.35-13.95ZM19.9 1.25L19.9 1.25Q17.35 1.25 17.35-1.83 17.35-4.9 21.75-9.4L21.75-9.4Q22.1-9.75 22.25-9.95L22.25-9.95 22.6-10.45Q23.3-11.4 23.25-11.65L23.25-11.65 23.1-12.1Q22.9-12.7 21.45-12.98 20-13.25 19.1-13.25L19.1-13.25Q14.6-6.9 13.9-6 13.2-5.1 12.95-5.25 12.7-5.4 12.7-5.6 12.7-5.8 13-6.2L13-6.2Q15.7-9.5 17.65-13.25L17.65-13.25Q17.05-13.35 16.75-13.68 16.45-14 16.7-14.78 16.95-15.55 18.22-16.85 19.5-18.15 20.45-18.6 21.4-19.05 21.65-19.15 21.9-19.25 22.2-19.25L22.2-19.25Q22.8-19.25 21.8-17.45L21.8-17.45 19.85-14.35Q22.1-14.2 23.7-14.2L23.7-14.2 25.45-14.25Q26.3-14.25 26.7-14.03 27.1-13.8 26.9-13.25L26.9-13.25Q26.55-12.3 25.15-10.7L25.15-10.7Q22.15-7.2 20.65-3.25L20.65-3.25Q20.3-2.3 20.3-1.6L20.3-1.6Q20.3-0.15 21.35-0.15L21.35-0.15Q21.7-0.15 22.67-0.7 23.65-1.25 25.95-3.33 28.25-5.4 29.65-7.4L29.65-7.4Q29.85-7.65 30.12-7.53 30.4-7.4 30.4-7.28 30.4-7.15 30.3-7L30.3-7Q29.55-5.65 27.6-3.55 25.65-1.45 23.8-0.15L23.8-0.15Q22 1.25 19.9 1.25ZM31.54 0.55L31.54 0.55Q30.74 0.55 29.82 0.08 28.89-0.4 28.24-1.28 27.59-2.15 27.59-3.15 27.59-4.15 28.04-5.05L28.04-5.05Q29.04-7.15 31.27-9.13 33.49-11.1 35.89-12.5 38.3-13.9 39.7-14.25 41.09-14.6 42.42-14.6 43.74-14.6 44.7-13.93 45.64-13.25 45.64-12.5L45.64-12.5Q45.64-12.25 45.59-12.2 45.55-12.15 45.34-12.25L45.34-12.25Q44.74-13.2 42.87-13.2 40.99-13.2 38.62-11.98 36.24-10.75 34.14-8.9L34.14-8.9Q32.39-7.25 31.07-5.18 29.74-3.1 29.74-2.15L29.74-2.15Q29.74-0.3 30.79-0.3 31.84-0.3 33.99-2L33.99-2Q37.55-5 38.84-6.4L38.84-6.4Q43.45-11.35 43.8-11.35L43.8-11.35Q44.39-11.35 45.24-11 46.09-10.65 45.8-10.15L45.8-10.15Q43.24-6.55 42.8-2.9L42.8-2.9Q42.74-2.45 42.74-1.75 42.74-1.05 43.14-0.6L43.14-0.6Q43.89 0.2 45.2-0.5 46.5-1.2 48.82-3.3 51.14-5.4 52.55-7.4L52.55-7.4Q52.75-7.65 53-7.53 53.25-7.4 53.25-7.3L53.25-7.3Q53.25-6.55 50.87-4.03 48.5-1.5 47.25-0.6L47.25-0.6Q44.89 1.15 42.89 1.15L42.89 1.15Q40.99 1.15 40.34-0.75L40.34-0.75Q40.2-1.35 40.2-2.1L40.2-2.1Q40.2-4.35 41.14-6.85L41.14-6.85Q40.95-6.75 39.3-4.85 37.64-2.95 35.47-1.2 33.3 0.55 31.54 0.55ZM64.44-11L64.44-11 64.69-12Q64.69-13 63.94-13L63.94-13Q61.89-13 58.34-9.8 54.79-6.6 53.84-3.35L53.84-3.35Q53.59-2.5 53.59-1.83 53.59-1.15 53.89-0.7L53.89-0.7Q54.49 0.2 55.74 0.2 56.99 0.2 58.44-0.15L58.44-0.15Q61.64-1.05 63.77-2.73 65.89-4.4 68.24-7.4L68.24-7.4Q68.44-7.65 68.72-7.55 68.99-7.45 68.99-7.28 68.99-7.1 68.84-6.75L68.84-6.75Q66.44-3.5 63.82-1.48 61.19 0.55 57.74 1.15L57.74 1.15Q56.74 1.3 55.89 1.3L55.89 1.3Q53.44 1.3 52.17 0.1 50.89-1.1 50.89-2.55 50.89-4 51.59-5.7L51.59-5.7Q52.84-8.55 56.94-11.55 61.04-14.55 63.44-14.55L63.44-14.55Q64.04-14.55 64.59-14.4L64.59-14.4Q65.99-13.9 65.99-12.8L65.99-12.8Q65.99-12.05 65.44-11.1 64.89-10.15 64.62-10.43 64.34-10.7 64.44-11ZM69.94 0.4L69.94 0.4Q68.14 1.3 67.64 1.3 67.14 1.3 67.14 1.15 67.14 1 67.22 0.83 67.29 0.65 67.92-1.05 68.54-2.75 69.49-5.35 70.44-7.95 71.14-9.7L71.14-9.7Q69.99-8.45 68.44-6.25L68.44-6.25Q68.19-5.9 67.77-6.05 67.34-6.2 68.04-7.1L68.04-7.1Q69.69-9.1 72.19-12.85L72.19-12.85Q71.44-13.25 71.44-13.63 71.44-14 71.54-14.2L71.54-14.2Q71.79-14.8 72.44-14.45L72.44-14.45Q72.74-14.35 72.84-14.35L72.84-14.35Q75.04-20.15 78.34-24.7L78.34-24.7Q80.14-27.25 82.09-28.43 84.04-29.6 85.74-29.6L85.74-29.6Q86.94-29.6 88.04-29.03 89.14-28.45 89.14-27.15L89.14-27.15Q89.14-24.65 84.84-19.9L84.84-19.9Q82.54-17.45 79.69-15.4 76.84-13.35 74.64-12.4L74.64-12.4Q72.69-8.1 71.19-3.4L71.19-3.4 74.44-7.65Q74.39-8.1 74.39-8.6L74.39-8.6Q74.39-10.1 75.04-10.45L75.04-10.45Q75.39-10.6 75.49-9.85L75.49-9.85 75.69-9.15Q79.54-13.65 81.24-14.45L81.24-14.45Q82.04-14.85 82.69-14.85 83.34-14.85 83.84-14.5 84.34-14.15 84.34-13.75L84.34-13.75Q84.34-13.05 83.19-12.5L83.19-12.5Q77.69-9.85 75.94-8L75.94-8Q77.14-3.8 78.29-1.4 79.44 1 81.92 4 84.39 7 86.44 7L86.44 7Q88.14 7 87.84 5.5L87.84 5.5Q87.64 4.15 87.02 3.18 86.39 2.2 86.89 2.2L86.89 2.2Q87.34 2.25 87.84 2.65L87.84 2.65Q88.14 3 88.54 3.88 88.94 4.75 88.94 5.35L88.94 5.35Q88.89 6.75 87.59 7.55 86.29 8.35 85.09 8.35L85.09 8.35Q82.74 8.35 80.49 6.03 78.24 3.7 76.74 0.4 75.24-2.9 74.64-6.35L74.64-6.35Q73.74-5.1 72.64-3.35L72.64-3.35Q70.39 0.1 69.94 0.4ZM86.29-24.3Q87.64-26.55 87.64-27.45 87.64-28.35 86.89-28.35 86.14-28.35 84.99-27.45L84.99-27.45Q81.79-25 79.59-21.88 77.39-18.75 75.24-14.1L75.24-14.1Q79.89-16.25 83.69-20.6L83.69-20.6Q84.94-22.05 86.29-24.3ZM89.64-13.85L89.64-13.85Q90.89-13.85 91.14-13.05L91.14-13.05Q91.24-12.6 91.01-12.18 90.79-11.75 90.69-11.5 90.59-11.25 90.54-11.1L90.54-11.1Q90.29-10.6 90.04-10.15L90.04-10.15Q87.19-4.45 87.04-2.9L87.04-2.9Q86.99-2.45 86.99-1.75 86.99-1.05 87.39-0.6L87.39-0.6Q88.09 0.2 89.39-0.5 90.69-1.2 93.01-3.3 95.34-5.4 96.79-7.4L96.79-7.4Q96.99-7.65 97.24-7.53 97.49-7.4 97.49-7.28 97.49-7.15 97.39-7L97.39-7Q96.64-5.65 94.69-3.55L94.69-3.55Q91.49-0.1 89.34 0.7L89.34 0.7Q88.09 1.15 87.24 1.15L87.24 1.15Q85.24 1.15 84.59-0.75L84.59-0.75Q84.49-1.1 84.49-1.6L84.49-1.6Q84.49-3.35 86.09-6.9L86.09-6.9Q85.84-6.35 84.14-4.4L84.14-4.4Q83.69-3.9 83.44-4.4L83.44-4.4Q83.39-4.5 83.39-4.67 83.39-4.85 83.59-5.1L83.59-5.1Q86.04-8.15 87.44-10.25L87.44-10.25Q87.34-10.5 87.54-10.9L87.54-10.9Q88.54-13.7 89.29-13.85L89.29-13.85Q89.44-13.85 89.64-13.85ZM93.59-20.5L93.59-20.5 93.19-18.9Q93.19-18.45 92.54-17.45 91.89-16.45 91.54-16.45L91.54-16.45Q89.39-16.45 89.39-17.5L89.39-17.5Q89.39-17.7 91.54-19.35L91.54-19.35 92.39-20Q93.19-20.7 93.39-20.7 93.59-20.7 93.59-20.5ZM110.04-14.2L110.04-14.2Q111.19-14.2 111.19-12.98 111.19-11.75 110.04-9.6 108.89-7.45 108.34-6.1L108.34-6.1Q107.39-3.8 107.39-2.43 107.39-1.05 107.79-0.6L107.79-0.6Q108.54 0.2 109.84-0.53 111.14-1.25 113.46-3.33 115.79-5.4 117.19-7.4L117.19-7.4Q117.39-7.65 117.66-7.53 117.94-7.4 117.94-7.28 117.94-7.15 117.84-7L117.84-7Q117.09-5.65 115.14-3.55 113.19-1.45 111.39-0.18 109.59 1.1 107.84 1.1L107.84 1.1Q106.14 1.05 105.44 0.33 104.74-0.4 104.74-1.5 104.74-2.6 104.94-3.63 105.14-4.65 105.69-6L105.69-6Q106.59-8.15 107.26-9.35 107.94-10.55 107.94-10.93 107.94-11.3 107.54-11.3L107.54-11.3Q106.74-11.3 104.49-9.35L104.49-9.35Q102.94-7.9 99.91-3.88 96.89 0.15 96.48 0.4L96.48 0.4Q94.69 1.3 94.23 1.3 93.79 1.3 93.79 1.15 93.79 1 93.89 0.73 93.98 0.45 94.86-2 95.73-4.45 96.76-7.38 97.79-10.3 98.01-10.9 98.23-11.5 98.31-11.93 98.39-12.35 98.48-12.65 98.59-12.95 98.86-13.33 99.14-13.7 99.59-13.73 100.04-13.75 100.73-13.63 101.44-13.5 101.44-13L101.44-13Q101.44-12.65 100.89-11.48 100.34-10.3 97.73-3.4L97.73-3.4Q99.54-5.6 102.29-8.47 105.04-11.35 106.94-12.85L106.94-12.85Q108.84-14.2 110.04-14.2ZM115.23 19.05L115.23 19.05Q114.83 19.05 114.23 18.9L114.23 18.9Q111.68 18.25 111.68 16.23 111.68 14.2 114.31 11.15 116.93 8.1 125.38 2.5L125.38 2.5Q128.98-4.85 130.38-9.15L130.38-9.15Q127.58-5.75 126.38-4.45L126.38-4.45Q121.88 0.55 119.13 0.55L119.13 0.55Q118.33 0.55 117.41 0.08 116.48-0.4 115.83-1.28 115.18-2.15 115.18-3.15L115.18-3.15Q115.18-5.8 118.88-9.1L118.88-9.1Q121.08-11.1 123.48-12.5 125.88-13.9 127.28-14.25 128.68-14.6 129.98-14.6 131.28-14.6 132.28-13.9 133.28-13.2 133.28-12.5L133.28-12.5Q133.28-12.1 132.88-12.25L132.88-12.25Q132.33-13.2 130.46-13.2 128.58-13.2 126.21-11.98 123.83-10.75 121.93-9.08 120.03-7.4 118.71-5.28 117.38-3.15 117.38-2.15L117.38-2.15Q117.38-0.4 118.38-0.4L118.38-0.4Q119.78-0.4 122.68-2.7L122.68-2.7Q126.98-6.05 130.93-10.85L130.93-10.85Q131.58-11.8 133.63-10.8L133.63-10.8Q134.43-10.4 134.28-10.1L134.28-10.1Q133.63-8.65 131.91-5.08 130.18-1.5 129.33 0.3L129.33 0.3Q130.48-0.3 133.26-2.73 136.03-5.15 138.13-7.6L138.13-7.6Q139.23-8.9 139.23-8L139.23-8Q139.23-6.75 133.23-1.4L133.23-1.4Q129.78 1.7 128.33 2.5L128.33 2.5Q124.08 11.25 122.63 13.5L122.63 13.5Q118.88 19.05 115.23 19.05ZM124.43 4.4L124.43 4.4Q118.43 8.9 115.83 11.53 113.23 14.15 113.23 16.45L113.23 16.45Q113.23 17.15 113.68 17.45 114.13 17.75 114.63 17.75 115.13 17.75 116.08 17 117.03 16.25 117.71 15.53 118.38 14.8 118.88 14.18 119.38 13.55 120.01 12.58 120.63 11.6 120.98 11.05 121.33 10.5 121.96 9.33 122.58 8.15 122.81 7.73 123.03 7.3 123.66 6 124.28 4.7 124.43 4.4Z" opacity="1" transform="matrix(1,0,0,1,0,0)" fill="#000000" class="slogan-text-1" data-fill-palette-color="secondary" id="text-1"></path></svg></g></svg></g></svg></g></svg></g><g transform="matrix(1,0,0,1,0,26.731359580696115)"><svg viewBox="0 0 118.65599999999999 127.39998952495678" height="127.39998952495678" width="118.65599999999999"><g><svg xmlns="http://www.w3.org/2000/svg" xmlns:xlink="http://www.w3.org/1999/xlink" version="1.1" x="0" y="0" viewBox="3.361 1.25 57.279 61.5" enable-background="new 0 0 64 64" xml:space="preserve" height="127.39998952495678" width="118.65599999999999" class="icon-icon-0" data-fill-palette-color="accent" id="icon-0"><g fill="#ffffff" data-fill-palette-color="accent"><path d="M32 1.25c-11.938 0-21.653 9.713-21.653 21.653 0 4.845 1.657 9.61 4.672 13.421L32 57.675l16.99-21.361c3.007-3.801 4.664-8.567 4.664-13.412C53.653 10.963 43.941 1.25 32 1.25zM32 30.975c-4.45 0-8.072-3.622-8.072-8.072 0-4.452 3.622-8.072 8.072-8.072 4.452 0 8.072 3.62 8.072 8.072C40.072 27.353 36.452 30.975 32 30.975z" fill="#000000" data-fill-palette-color="accent"></path><path d="M32.334 60.899c9.532-0.03 17.206-1.326 17.206-2.922v0 0c0-1.331-5.343-2.454-12.649-2.807l1.47-1.848c12.756 0.482 22.279 2.383 22.279 4.655l0 0 0 0c0 2.636-12.822 4.773-28.639 4.773S3.361 60.613 3.361 57.977c0-2.272 9.523-4.173 22.279-4.655l1.47 1.848c-7.306 0.353-12.649 1.476-12.649 2.807 0 1.596 7.674 2.892 17.206 2.922H32.334z" fill="#000000" data-fill-palette-color="accent"></path></g></svg></g></svg></g></svg></g></svg></g></svg></g><defs></defs></svg><rect width="320" height="360" fill="none" stroke="none" visibility="hidden"></rect></g></svg></g></svg>